<?xml version="1.0" standalone="no"?>
<!DOCTYPE svg PUBLIC "-//W3C//DTD SVG 20010904//EN"
 "http://www.w3.org/TR/2001/REC-SVG-20010904/DTD/svg10.dtd">
<svg version="1.0" xmlns="http://www.w3.org/2000/svg"
 width="512.000000pt" height="512.000000pt" viewBox="0 0 512.000000 512.000000"
 preserveAspectRatio="xMidYMid meet">

<g transform="translate(0.000000,512.000000) scale(0.100000,-0.100000)"
fill="#000000" stroke="none">
<path d="M2435 4974 c-16 -2 -79 -9 -140 -15 -152 -14 -242 -32 -370 -72 -222
-70 -364 -138 -580 -276 -118 -75 -299 -241 -410 -376 -189 -230 -326 -480
-411 -745 -85 -268 -117 -479 -116 -765 1 -189 6 -242 42 -445 16 -90 59 -247
80 -295 10 -22 24 -58 31 -80 6 -22 29 -74 49 -115 21 -41 41 -86 45 -100 13
-46 160 -271 233 -358 39 -45 44 -56 35 -75 -11 -23 -99 -125 -194 -224 -27
-28 -49 -55 -49 -60 0 -14 172 -177 217 -206 51 -32 55 -28 11 13 -17 17 -29
33 -25 36 9 9 69 -28 97 -60 14 -15 35 -32 47 -37 24 -9 32 -29 12 -29 -6 0
-9 -7 -5 -15 3 -8 -6 -36 -19 -62 -14 -25 -25 -52 -25 -59 0 -17 150 -115 287
-187 150 -78 283 -131 423 -169 153 -41 156 -41 175 -30 14 7 7 12 -36 21 -81
18 -132 32 -151 42 -10 5 -27 9 -37 9 -11 0 -23 5 -26 10 -3 6 -17 10 -30 10
-13 0 -26 4 -29 9 -3 5 -18 12 -32 15 -29 8 -78 29 -196 85 -75 35 -95 51 -63
51 22 0 30 -4 27 -13 -1 -5 7 -6 18 -2 11 4 20 2 20 -4 0 -6 9 -11 20 -11 12
0 50 -16 86 -35 35 -19 76 -35 89 -35 14 0 25 -4 25 -10 0 -5 9 -10 21 -10 23
0 115 -26 141 -41 10 -5 27 -9 37 -9 11 0 23 -4 26 -10 3 -5 17 -10 30 -10 13
0 26 -4 29 -9 3 -4 36 -11 73 -15 37 -4 88 -14 113 -22 144 -49 803 -51 985
-3 22 6 47 13 55 14 8 2 31 9 50 16 19 6 58 15 85 19 58 9 95 20 185 53 36 13
74 27 85 31 11 5 30 13 42 18 12 6 28 8 37 5 10 -4 13 -1 9 9 -3 9 1 14 12 14
22 0 211 99 308 162 44 29 77 57 77 67 0 9 -9 31 -20 49 -11 18 -20 41 -20 51
0 11 -3 21 -7 23 -12 5 -52 88 -43 88 4 0 19 -21 33 -47 13 -27 41 -81 62
-121 37 -70 38 -73 19 -87 -63 -50 -109 -77 -138 -82 -18 -3 -48 -18 -66 -33
-29 -25 -143 -86 -207 -111 -33 -13 -62 -24 -108 -42 -22 -9 -58 -21 -80 -28
-22 -6 -49 -15 -60 -19 -11 -5 -54 -18 -95 -30 -41 -12 -79 -23 -85 -25 -5 -1
1 -6 15 -9 17 -5 60 5 131 28 59 20 114 36 123 36 23 0 154 55 296 123 136 66
314 178 318 200 2 9 -6 35 -17 59 l-20 43 42 37 c45 40 31 55 -16 18 -14 -11
-31 -20 -39 -20 -8 1 -6 6 7 16 11 8 38 32 60 52 106 100 181 138 97 50 -23
-23 -39 -44 -36 -47 17 -17 234 182 234 216 0 7 -38 51 -85 99 -47 47 -104
110 -127 140 l-41 55 19 24 c148 186 268 386 344 575 12 30 29 71 37 90 9 19
19 51 24 70 4 19 15 62 24 95 64 240 92 515 75 757 -12 164 -56 426 -90 532
-5 17 -24 74 -40 126 -72 223 -244 522 -411 716 -173 201 -435 408 -627 496
-37 17 -95 44 -129 60 -139 64 -408 138 -505 138 -63 0 -61 -16 3 -24 28 -4
70 -13 93 -20 63 -20 115 -33 178 -44 111 -21 481 -194 496 -233 2 -5 8 -9 13
-9 17 0 154 -93 214 -145 117 -103 245 -237 245 -257 0 -4 -14 7 -31 23 -18
16 -34 27 -37 24 -3 -3 0 -11 6 -17 7 -7 12 -18 12 -26 0 -8 -51 37 -114 100
-119 118 -144 153 -54 74 74 -65 85 -58 15 9 -43 42 -63 54 -78 50 -21 -7 -49
15 -49 37 0 8 4 7 11 -4 5 -10 15 -18 22 -18 14 0 -37 48 -72 68 -12 7 -31 10
-41 7 -12 -4 -27 1 -40 12 -10 10 -68 43 -127 73 -60 30 -109 58 -111 63 -2 4
-8 7 -13 7 -5 0 -41 14 -79 32 -52 23 -69 35 -65 46 4 12 3 13 -9 3 -12 -10
-30 -8 -88 9 -40 12 -82 26 -93 30 -11 5 -29 11 -40 13 -13 3 -10 5 9 6 24 1
27 4 18 13 -7 7 -45 14 -90 15 -112 4 -110 3 -87 13 16 7 14 9 -15 9 -24 1
-31 -2 -21 -8 17 -11 -56 -4 -163 15 -89 16 -146 18 -146 5 0 -4 -48 -11 -107
-15 -168 -11 -208 -17 -238 -33 -11 -6 -40 -14 -65 -18 -24 -4 -51 -11 -60
-15 -8 -4 -53 -20 -100 -35 -84 -26 -118 -39 -152 -56 -9 -5 -32 -6 -50 -4
-23 4 -27 3 -14 -3 15 -7 1 -17 -75 -55 -149 -74 -352 -217 -487 -342 -31 -29
-68 -56 -81 -60 -43 -13 -88 -72 -77 -100 5 -13 -15 -44 -61 -95 -13 -14 -30
-38 -38 -55 -8 -16 -28 -50 -45 -75 -16 -25 -30 -48 -30 -53 0 -4 -17 -36 -38
-70 -63 -106 -123 -240 -153 -342 -52 -173 -72 -259 -102 -430 -12 -71 -17
-576 -5 -569 7 4 12 -58 11 -138 0 -10 4 -18 9 -18 13 0 9 -28 -4 -33 -10 -3
-10 -9 0 -26 7 -11 8 -21 3 -21 -5 0 -5 -16 1 -37 5 -21 12 -48 15 -59 3 -12
0 -25 -6 -28 -7 -5 -11 2 -11 18 0 14 -4 26 -10 26 -5 0 -10 11 -10 24 0 14
-4 27 -9 30 -4 3 -11 25 -14 48 -3 24 -13 84 -22 133 -21 117 -29 406 -17 565
30 374 183 801 392 1097 66 93 244 309 260 315 5 2 33 26 62 53 109 103 256
202 443 301 149 78 217 104 415 155 199 52 349 70 505 62 67 -3 143 -2 170 2
l50 8 -40 7 c-53 10 -222 19 -260 14z m-45 -350 c6 -14 10 -27 10 -30 0 -2
-23 -4 -51 -4 l-52 0 7 -77 c4 -43 13 -109 21 -147 8 -38 12 -73 9 -77 -3 -5
-20 -9 -38 -9 l-32 0 -16 135 c-9 74 -19 139 -23 145 -8 13 -51 13 -77 -1 -23
-12 -23 -12 -32 18 -9 29 11 37 136 57 128 19 127 19 138 -10z m273 -64 c15
-47 37 -119 48 -160 11 -41 25 -80 31 -87 17 -20 1 -30 -39 -24 -33 5 -38 10
-41 36 -6 47 -28 65 -82 65 -51 0 -67 -11 -79 -57 -6 -22 -14 -29 -39 -31 -18
-2 -32 0 -32 4 0 7 128 321 137 337 3 4 19 7 36 5 31 -3 33 -7 60 -88z m322
34 c95 -25 136 -77 116 -146 -9 -29 -21 -43 -47 -55 -18 -9 -34 -22 -34 -28 0
-20 32 -120 42 -132 16 -20 -16 -27 -48 -11 -22 10 -31 26 -45 77 -31 111 -61
118 -82 22 -7 -29 -15 -52 -19 -52 -5 1 -16 1 -25 1 -35 0 -46 15 -32 41 7 13
26 73 42 134 25 95 32 125 36 168 1 5 11 5 24 1 12 -4 44 -13 72 -20z m-959
-45 c14 -15 16 -24 7 -37 -8 -13 -22 -16 -65 -14 -51 3 -56 2 -82 -29 -23 -27
-27 -40 -24 -74 11 -95 66 -153 133 -141 33 7 57 27 68 59 8 21 30 22 47 2 32
-39 -73 -125 -152 -125 -76 0 -126 44 -155 137 -14 46 -15 61 -4 101 18 68 67
116 136 133 52 12 71 10 91 -12z m1644 -19 c8 -5 12 -12 9 -15 -8 -8 -39 5
-39 16 0 11 11 11 30 -1z m-2118 -76 c-4 -32 -30 -67 -44 -58 -11 7 1 77 16
86 20 13 31 2 28 -28z m103 -55 c4 -11 5 -22 3 -23 -1 -1 -27 -17 -55 -35 -29
-18 -53 -37 -53 -43 0 -17 30 -68 40 -68 6 0 28 11 50 25 46 29 53 30 69 11
10 -11 5 -20 -26 -42 -69 -50 -70 -56 -25 -112 l18 -23 59 42 c55 39 60 40 72
23 7 -10 12 -23 10 -28 -3 -9 -130 -95 -166 -113 -9 -4 -18 -1 -23 8 -5 8 -36
61 -69 119 -34 58 -71 118 -82 134 l-20 29 28 21 c38 29 147 96 156 96 4 0 11
-9 14 -21z m1830 -5 c127 -85 157 -179 88 -277 -58 -83 -130 -107 -204 -69
-56 29 -128 76 -129 85 0 5 17 29 38 55 42 51 132 201 132 220 0 20 33 13 75
-14z m-2030 -317 c118 -130 114 -122 85 -145 -19 -15 -30 -17 -59 -11 -244 57
-221 53 -221 39 0 -12 45 -65 103 -122 43 -43 44 -48 16 -74 -19 -16 -23 -17
-27 -4 -5 15 -98 117 -180 198 -44 43 -44 43 -26 65 29 34 33 35 82 21 56 -17
202 -43 202 -36 0 3 -31 40 -70 83 -38 42 -70 80 -70 84 0 4 10 15 23 26 22
18 22 18 37 -4 8 -12 56 -66 105 -120z m2624 106 c1 5 20 -15 43 -45 23 -29
45 -55 48 -58 15 -11 80 -121 80 -135 0 -8 5 -15 10 -15 6 0 10 -7 10 -15 0
-8 4 -15 9 -15 5 0 14 -15 20 -32 10 -30 9 -31 -4 -14 -12 16 -17 17 -30 6
-18 -15 -20 1 -3 18 9 9 10 15 2 20 -6 4 -19 21 -28 39 -9 17 -21 35 -27 38
-6 4 -4 -7 5 -23 9 -17 12 -33 7 -36 -4 -3 -14 6 -21 19 -7 14 -17 25 -22 25
-4 0 -8 5 -8 12 0 6 -19 36 -42 67 -64 83 -83 115 -64 108 12 -5 13 -2 6 19
-12 31 -12 57 0 29 5 -11 9 -16 9 -12z m-1379 -82 c142 -17 181 -28 285 -76
39 -18 81 -35 95 -39 34 -8 139 -75 119 -76 -9 0 -22 7 -29 15 -7 8 -17 15
-22 15 -5 0 -42 15 -81 34 -40 19 -85 37 -101 41 l-28 6 28 -26 29 -26 -40 6
c-38 6 -68 16 -107 36 -10 5 -27 9 -38 9 -11 0 -20 4 -20 9 0 5 20 5 47 0 57
-11 67 -4 22 15 -100 42 -299 56 -515 36 -122 -11 -187 -33 -179 -61 5 -14 1
-19 -14 -19 -11 0 -23 -4 -26 -10 -3 -5 -17 -10 -31 -10 -13 0 -32 -4 -42 -9
-34 -18 -107 -40 -127 -39 -34 3 -131 -50 -186 -102 -10 -8 -42 -35 -73 -60
-31 -25 -56 -51 -56 -57 0 -7 -8 -13 -17 -13 -16 -1 -16 -2 2 -16 15 -12 16
-15 4 -12 -20 4 -103 -77 -94 -92 4 -6 3 -10 -2 -9 -20 3 -25 -2 -13 -16 10
-12 8 -21 -12 -47 -13 -18 -35 -53 -49 -78 -13 -25 -26 -47 -29 -50 -10 -9
-57 -114 -69 -155 -17 -57 -33 -87 -59 -113 -16 -17 -21 -30 -16 -45 9 -27 7
-60 -8 -146 -6 -36 -13 -128 -14 -204 -1 -87 -7 -143 -14 -152 -7 -8 -9 -23
-4 -37 7 -22 7 -22 15 -3 6 14 7 10 3 -12 -3 -18 -2 -33 3 -33 4 0 9 -12 9
-27 1 -16 5 -39 8 -53 4 -14 7 -44 6 -68 0 -23 3 -42 7 -41 25 4 53 -15 53
-37 0 -13 3 -24 8 -24 9 0 34 -69 33 -95 -1 -11 -1 -38 -1 -60 l-1 -39 -20 29
c-39 59 -99 205 -99 243 0 12 -4 22 -9 22 -5 0 -11 12 -14 28 -3 15 -13 63
-22 107 -21 102 -25 411 -7 505 14 71 30 126 43 152 5 10 9 24 9 32 0 15 23
70 80 191 60 130 144 248 256 364 122 127 216 196 384 283 54 28 199 79 255
89 28 5 82 16 120 24 74 15 227 13 365 -4z m1123 5 c73 -30 117 -121 96 -198
-14 -55 -89 -132 -142 -146 -102 -28 -211 78 -193 189 9 58 60 127 110 150 49
22 85 24 129 5z m-1114 -113 c143 -23 289 -77 436 -162 160 -92 332 -266 429
-435 125 -216 172 -377 182 -631 6 -130 4 -164 -15 -255 -22 -109 -38 -171
-51 -205 -5 -11 -16 -40 -25 -65 -29 -76 -112 -222 -168 -295 -187 -241 -456
-409 -757 -470 -129 -27 -369 -25 -480 2 -98 25 -250 81 -324 121 -144 76
-315 228 -424 374 -41 56 -137 235 -163 303 -32 87 -42 127 -65 265 -40 246
13 554 139 795 160 308 473 560 791 637 194 48 305 52 495 21z m1535 -98 c3
-8 1 -15 -4 -15 -6 0 -10 7 -10 15 0 8 2 15 4 15 2 0 6 -7 10 -15z m-1027 -25
c13 0 23 -5 23 -12 0 -6 3 -8 7 -4 4 4 -3 16 -17 26 -18 14 -21 20 -9 20 31 0
159 -99 159 -123 0 -6 -5 -4 -11 6 -10 18 -12 18 -30 1 -19 -17 -21 -17 -51 1
-52 30 -138 97 -138 107 0 5 10 2 22 -6 12 -9 33 -16 45 -16z m-1373 5 c-4 -8
-10 -15 -15 -15 -4 0 -6 7 -3 15 4 8 10 15 15 15 4 0 6 -7 3 -15z m-83 -68
c-10 -9 -11 -8 -5 6 3 10 9 15 12 12 3 -3 0 -11 -7 -18z m2514 13 c3 -5 1 -10
-4 -10 -6 0 -11 5 -11 10 0 6 2 10 4 10 3 0 8 -4 11 -10z m25 -41 c0 -5 -4 -9
-10 -9 -5 0 -10 7 -10 16 0 8 5 12 10 9 6 -3 10 -10 10 -16z m-2600 -15 c0 -9
-32 -33 -44 -34 -5 0 -1 9 9 20 18 20 35 26 35 14z m2615 -13 c3 -5 1 -12 -5
-16 -5 -3 -10 1 -10 9 0 18 6 21 15 7z m-716 -230 c0 -13 -2 -13 -6 -1 -4 8
-12 21 -20 28 -7 7 -13 19 -13 25 1 7 10 1 20 -12 11 -13 20 -31 19 -40z
m-2601 -87 c-4 -123 -4 -125 17 -118 11 4 40 7 65 8 39 1 45 -2 48 -20 2 -14
-8 -30 -28 -48 -40 -33 -61 -34 -30 -1 29 31 17 48 -31 43 -36 -3 -48 -24 -33
-56 4 -9 6 -23 5 -30 -1 -7 7 -29 18 -48 21 -35 29 -94 13 -94 -5 0 -20 10
-33 21 -24 21 -24 21 -1 15 26 -9 29 6 7 48 -8 15 -15 35 -15 42 0 8 -9 14
-20 14 -15 0 -20 -7 -20 -27 0 -40 -52 -174 -72 -187 -24 -15 -28 -7 -35 72
l-6 71 -27 -14 c-41 -21 -43 -7 -4 27 51 45 47 75 -21 144 -46 48 -53 59 -44
76 17 32 35 31 84 -2 25 -17 49 -29 54 -25 5 3 13 20 16 38 9 41 76 177 88
177 6 0 8 -54 5 -126z m2612 2 l30 -51 0 36 c0 24 -5 39 -15 43 -8 3 -14 16
-14 28 1 17 2 19 6 5 2 -9 9 -15 14 -12 5 4 9 -1 9 -9 0 -9 3 -16 8 -16 4 0
16 -18 26 -40 16 -34 17 -44 6 -64 -14 -27 -1 -83 18 -79 6 2 14 -19 18 -45 3
-26 10 -55 15 -64 6 -10 5 -19 -1 -23 -5 -3 -10 3 -10 14 0 12 -4 21 -10 21
-5 0 -10 8 -10 18 0 9 -7 30 -15 46 -8 15 -15 37 -15 47 0 11 -4 19 -10 19 -5
0 -10 7 -10 15 0 8 -4 15 -8 15 -4 0 -16 23 -27 50 -11 28 -23 50 -27 50 -4 0
-8 5 -8 10 0 6 -9 20 -20 32 -11 12 -20 26 -20 31 0 18 40 -26 70 -77z m440
68 c0 -9 8 -28 18 -42 25 -35 34 -62 22 -62 -6 0 -10 9 -10 21 0 34 -34 19
-38 -17 -7 -73 45 -116 59 -49 6 28 7 28 8 5 1 -14 8 -33 16 -43 7 -11 17 -36
20 -58 5 -27 12 -39 23 -40 11 0 12 -2 5 -6 -9 -3 -13 -31 -13 -92 0 -55 -5
-94 -13 -105 -11 -15 -16 -11 -42 46 -16 35 -31 65 -32 67 -2 2 -12 -4 -23
-14 -11 -10 -23 -15 -27 -12 -3 4 -1 7 5 7 16 0 26 64 15 96 l-9 27 -23 -44
c-15 -27 -24 -61 -23 -86 0 -24 -4 -43 -10 -43 -10 0 -6 83 7 131 6 22 3 28
-17 34 -23 7 -23 8 -1 12 58 11 48 67 -11 62 -34 -3 -56 6 -56 23 0 11 61 6
108 -8 l24 -7 -7 81 c-4 44 -5 92 -1 106 7 28 26 36 26 10z m390 -76 c0 -26
-9 -19 -15 11 -2 12 0 19 6 16 5 -4 9 -16 9 -27z m20 -48 c0 -11 -4 -20 -10
-20 -5 0 -10 9 -10 20 0 11 5 20 10 20 6 0 10 -9 10 -20z m-179 -14 c9 -19 8
-29 -5 -47 -16 -23 -16 -23 -16 -2 0 35 -11 53 -34 54 -19 1 -19 2 4 9 38 12
40 12 51 -14z m-571 -28 c0 -19 -2 -20 -10 -8 -8 12 -10 12 -10 1 0 -8 -2 -12
-5 -9 -8 7 5 38 16 38 5 0 9 -10 9 -22z m769 -30 c1 -5 -3 -8 -9 -8 -5 0 -10
12 -9 28 0 24 1 25 9 7 5 -11 9 -23 9 -27z m-733 -66 c-10 -10 -29 15 -21 28
6 9 10 8 17 -4 6 -10 7 -20 4 -24z m741 1 c-3 -10 -5 -4 -5 12 0 17 2 24 5 18
2 -7 2 -21 0 -30z m-3692 -52 c-19 -28 -25 -48 -21 -65 4 -17 1 -26 -11 -30
-43 -17 -30 50 23 113 36 43 42 32 9 -18z m3435 -33 c34 -46 37 -58 15 -58
-14 0 -55 67 -55 90 0 18 9 11 40 -32z m337 -200 c-2 -13 -4 -5 -4 17 -1 22 1
32 4 23 2 -10 2 -28 0 -40z m-760 -80 c12 -16 5 -178 -8 -178 -5 0 -9 36 -9
79 0 44 -3 82 -8 85 -4 2 -5 26 -3 53 l5 48 6 -37 c4 -20 11 -43 17 -50z m31
57 c-3 -3 -9 2 -12 12 -6 14 -5 15 5 6 7 -7 10 -15 7 -18z m705 -180 c-3 -82
-7 -152 -9 -154 -2 -2 -4 74 -3 170 0 97 4 165 8 154 5 -11 6 -87 4 -170z
m-726 133 c-3 -8 -6 -5 -6 6 -1 11 2 17 5 13 3 -3 4 -12 1 -19z m541 -90 c-3
-36 -7 -43 -35 -52 -17 -6 -34 -13 -36 -16 -2 -3 -7 -38 -11 -78 l-6 -72 35
-17 c27 -13 35 -23 35 -44 0 -15 -4 -30 -9 -33 -5 -3 -34 9 -64 28 -31 18 -99
55 -152 81 l-96 47 3 41 3 40 140 47 c78 26 150 52 160 58 32 18 36 14 33 -30z
m-511 -70 c-2 -18 -4 -4 -4 32 0 36 2 50 4 33 2 -18 2 -48 0 -65z m-2842 -35
c0 -103 -2 -113 -23 -136 -43 -46 -107 -41 -149 11 l-23 27 -53 -53 c-29 -28
-58 -52 -65 -52 -7 0 -12 15 -12 38 0 32 7 43 55 87 35 32 56 59 58 75 2 24
-1 25 -60 28 l-63 3 0 34 0 35 78 1 c42 1 111 5 152 9 114 11 105 20 105 -107z
m2782 -180 c-2 -16 -4 -5 -4 22 0 28 2 40 4 28 2 -13 2 -35 0 -50z m-20 -85
c-2 -13 -4 -5 -4 17 -1 22 1 32 4 23 2 -10 2 -28 0 -40z m261 12 c9 -5 77 -28
150 -51 127 -40 132 -42 132 -69 0 -15 -6 -32 -12 -37 -7 -5 -68 -27 -135 -48
-68 -22 -123 -43 -123 -46 0 -8 166 -69 186 -69 16 0 19 -37 5 -59 -7 -11 -37
-3 -157 44 -82 31 -150 58 -152 59 -1 2 3 17 9 33 11 34 17 37 154 82 49 17
91 34 93 40 3 9 -34 22 -150 53 -49 12 -52 17 -42 56 7 24 15 27 42 12z m-292
-112 c-13 -36 -15 -39 -16 -16 0 15 5 30 10 33 6 3 11 21 11 38 1 22 3 25 6
10 2 -12 -3 -41 -11 -65z m-2921 23 c33 -5 100 -13 148 -16 l89 -7 14 -34 c8
-19 11 -41 7 -48 -4 -7 -47 -46 -94 -87 -179 -155 -179 -155 -179 -121 0 10
-6 24 -12 31 -11 10 -6 18 21 41 l34 29 -16 52 c-10 28 -17 57 -17 64 0 24
-30 45 -55 39 -26 -6 -30 -2 -40 45 -7 32 -6 33 16 28 13 -3 51 -10 84 -16z
m2881 -158 c-4 -30 -13 -51 -26 -60 -11 -8 -30 -33 -42 -56 -38 -76 -105 -171
-168 -241 -55 -61 -61 -71 -46 -81 8 -7 13 -15 10 -18 -4 -3 -13 0 -21 8 -12
13 -18 11 -41 -11 -15 -14 -70 -55 -122 -92 -118 -82 -126 -89 -103 -94 25 -5
-32 -37 -135 -76 -63 -24 -88 -29 -102 -22 -13 7 -21 7 -25 0 -3 -5 2 -10 11
-10 10 0 15 -3 12 -6 -4 -3 -32 -2 -64 1 l-57 8 39 13 c22 8 47 14 57 14 9 0
26 5 37 10 11 6 29 15 40 20 11 6 26 10 34 10 8 0 16 3 18 8 2 4 39 25 83 47
126 62 323 229 407 345 18 25 35 47 38 50 26 25 74 102 114 183 27 53 51 97
54 97 2 0 2 -21 -2 -47z m771 -25 c-3 -7 -5 -2 -5 12 0 14 2 19 5 13 2 -7 2
-19 0 -25z m-3907 -8 c0 -10 5 -22 10 -25 6 -3 10 -17 10 -30 0 -13 5 -27 10
-30 6 -3 10 -15 10 -26 0 -13 -4 -18 -12 -13 -8 5 -9 -2 -4 -27 4 -19 10 -52
13 -74 5 -38 4 -39 -11 -20 -8 11 -16 28 -16 38 0 10 -5 28 -12 40 -13 24 -18
198 -5 190 4 -2 7 -13 7 -23z m3887 -62 c-3 -7 -5 -2 -5 12 0 14 2 19 5 13 2
-7 2 -19 0 -25z m-3057 9 c0 -8 -6 -14 -14 -14 -8 0 -12 6 -9 14 3 7 9 13 14
13 5 0 9 -6 9 -13z m2779 -193 c6 -6 -21 -65 -29 -62 -57 22 -280 146 -280
156 0 7 5 22 10 32 10 18 20 15 153 -51 78 -39 144 -73 146 -75z m-2968 66
c22 -23 41 -54 45 -75 13 -68 -19 -117 -54 -82 -13 13 -13 21 -4 42 13 29 2
64 -28 83 -42 26 -82 -27 -62 -82 33 -91 -1 -166 -77 -166 -48 0 -92 34 -123
93 -23 46 -20 109 6 136 15 14 17 14 32 -1 14 -13 14 -21 4 -50 -11 -29 -10
-39 4 -66 21 -41 55 -58 85 -43 24 13 28 49 10 100 -25 71 22 151 89 151 28 0
43 -8 73 -40z m3210 6 c-6 -8 -11 -18 -10 -22 1 -5 -5 -26 -14 -46 -20 -44
-21 -70 -5 -86 7 -7 8 -12 2 -12 -5 0 -14 4 -20 10 -6 6 -11 -1 -12 -23 -2
-25 0 -29 8 -17 8 11 9 7 4 -15 -9 -38 -53 -97 -69 -91 -11 4 -86 -99 -111
-154 -16 -34 -64 -86 -64 -70 0 7 11 28 25 46 14 18 25 36 25 40 0 4 6 15 14
23 29 33 148 261 202 389 10 23 22 42 27 42 5 0 4 -6 -2 -14z m-2911 -57 c37
-45 137 -146 205 -208 61 -54 187 -141 205 -141 6 0 10 -4 10 -10 0 -5 7 -10
15 -10 8 0 15 -4 15 -10 0 -5 7 -10 15 -10 8 0 15 -4 15 -9 0 -10 -58 -12 -74
-3 -4 2 -3 8 4 12 7 4 -9 20 -43 44 -31 20 -59 36 -63 36 -4 0 -16 8 -27 18
-19 16 -19 16 -13 -5 13 -42 -20 -26 -119 57 -49 40 -145 141 -188 198 -43 56
-45 82 -3 37 23 -25 26 -26 26 -8 0 10 -5 24 -12 31 -7 7 -8 12 -2 12 5 0 20
-14 34 -31z m2386 -83 c27 -27 34 -42 34 -74 0 -38 2 -40 35 -46 19 -4 51 -4
70 0 40 7 42 1 19 -46 -16 -32 -17 -32 -68 -25 -80 12 -98 11 -109 -7 -9 -14
-6 -23 18 -48 15 -16 37 -32 47 -36 24 -7 23 -25 -2 -52 l-21 -22 -97 83 c-54
45 -113 93 -131 107 l-33 25 57 78 c79 108 121 123 181 63z m-3202 -43 c-4
-35 -1 -54 10 -68 12 -16 15 -17 16 -4 0 9 -3 19 -7 23 -4 4 -9 19 -11 34 -4
36 7 22 52 -61 37 -70 46 -101 24 -79 -20 20 -29 14 -22 -15 6 -26 4 -25 -20
9 -14 20 -26 44 -26 52 0 9 -3 16 -7 16 -5 0 -17 18 -27 40 -18 37 -18 41 -3
58 10 10 17 24 17 30 0 7 2 12 5 12 2 0 2 -21 -1 -47z m2716 -71 c0 -12 -27
-47 -37 -47 -5 0 -19 -10 -33 -22 -13 -13 -26 -21 -28 -18 -8 8 40 55 56 55 9
0 13 3 9 6 -3 3 0 12 6 20 14 15 27 18 27 6z m-2026 -26 c40 -17 92 -78 100
-118 11 -55 -4 -106 -46 -153 -49 -56 -85 -75 -138 -75 -50 0 -89 19 -124 60
-59 70 -55 158 10 229 60 67 127 87 198 57z m2237 -192 c52 -31 120 -70 152
-87 31 -16 57 -33 57 -37 0 -4 -9 -15 -21 -25 -20 -19 -22 -19 -89 9 -15 6
-114 -78 -107 -92 1 -4 9 -20 17 -36 14 -26 13 -29 -9 -47 -13 -10 -26 -19
-30 -19 -4 0 -32 78 -63 173 l-56 172 26 22 c15 13 28 23 28 23 1 0 44 -25 95
-56z m-1533 -16 c40 -17 61 -37 25 -24 -9 4 -20 1 -24 -6 -8 -13 -68 2 -119
30 l-25 14 28 -5 c18 -3 30 0 34 9 5 14 14 12 81 -18z m-1244 -4 c9 -24 7 -27
-9 -10 -17 17 -19 26 -6 26 5 0 12 -7 15 -16z m64 -24 c7 -11 9 -20 4 -20 -4
0 -13 9 -20 20 -7 11 -9 20 -4 20 4 0 13 -9 20 -20z m-5 -51 c7 -26 -8 -24
-26 5 -15 22 -15 24 3 19 10 -3 20 -13 23 -24z m1469 10 c9 -5 54 -9 100 -10
118 -1 70 -15 -77 -23 -97 -5 -125 -3 -145 8 -14 9 -19 15 -12 16 18 0 15 18
-5 23 -10 3 14 3 52 0 39 -3 78 -10 87 -14z m403 1 c4 -6 -12 -10 -40 -10 -25
0 -44 -4 -41 -8 6 -11 -51 -14 -89 -5 -26 6 -19 8 45 18 101 16 118 17 125 5z
m595 -15 c14 -17 7 -45 -13 -45 -7 0 -23 -9 -35 -20 l-22 -21 26 -52 c15 -29
46 -82 70 -118 24 -37 44 -69 44 -73 0 -10 -64 -39 -67 -30 -13 37 -123 230
-136 238 -12 8 -24 5 -47 -13 -42 -31 -66 -20 -59 27 1 4 42 29 93 55 50 26
95 52 100 57 14 14 32 12 46 -5z m-1569 -52 c86 -44 122 -91 122 -156 -2 -81
-47 -156 -110 -183 -50 -22 -78 -17 -164 27 -74 38 -93 59 -68 74 5 4 39 67
74 141 35 74 66 134 69 134 3 0 38 -17 77 -37z m2289 27 c0 -5 -4 -10 -10 -10
-5 0 -10 -7 -10 -15 0 -8 -4 -15 -9 -15 -19 0 -42 -32 -36 -51 5 -14 -7 -35
-40 -74 -51 -59 -173 -155 -198 -155 -8 0 -17 -3 -19 -7 -1 -5 -21 -21 -42
-37 -22 -16 -36 -24 -32 -18 4 7 2 12 -3 12 -6 0 -11 -4 -11 -10 0 -5 -6 -10
-12 -10 -7 0 -20 -5 -28 -10 -13 -9 -13 -11 0 -20 13 -8 12 -10 -4 -10 -10 0
-26 -8 -35 -18 -21 -22 -114 -72 -135 -72 -10 0 -14 -4 -11 -10 3 -5 0 -10 -8
-10 -8 0 -39 -15 -69 -33 -30 -18 -75 -39 -99 -46 -24 -7 -80 -24 -123 -38
-59 -19 -90 -23 -122 -18 -49 7 -80 -3 -48 -16 16 -6 15 -8 -8 -8 -16 -1 -28
-5 -28 -10 0 -4 -24 -11 -52 -15 -29 -3 -78 -11 -108 -16 -72 -11 -262 -12
-235 0 17 7 14 9 -13 9 -18 1 -31 -3 -27 -8 3 -5 -9 -11 -27 -13 -47 -4 -208
10 -242 22 -16 6 -55 10 -87 10 -32 0 -61 5 -64 10 -3 6 -22 10 -42 10 -20 0
-50 4 -67 10 -127 39 -202 65 -210 72 -6 4 -16 8 -23 8 -7 0 -41 13 -75 29
-35 16 -88 40 -118 54 -52 23 -179 105 -207 133 -9 8 -10 15 -3 19 6 4 8 11 5
16 -7 11 54 -22 145 -78 71 -44 104 -59 260 -124 30 -12 59 -26 64 -31 6 -4
16 -8 23 -8 8 0 33 -9 55 -20 23 -11 53 -20 67 -20 14 -1 69 -10 121 -21 177
-38 531 -55 675 -32 39 6 108 17 155 23 47 6 94 15 105 20 11 4 54 18 95 30
41 12 80 26 85 30 6 5 53 24 106 44 101 38 328 156 349 181 7 8 18 15 25 15 8
0 15 4 17 8 2 5 28 27 58 49 73 54 88 67 208 185 56 56 102 105 102 110 0 4 5
8 10 8 6 0 10 -4 10 -10z m-2880 -241 c21 -20 29 -34 22 -37 -7 -2 -10 -8 -6
-13 11 -18 -14 -9 -53 20 -52 38 -173 162 -173 178 0 6 5 15 10 18 6 4 7 12 4
18 -4 7 31 -25 77 -69 46 -45 100 -96 119 -115z m-233 175 c-3 -3 -12 -4 -19
-1 -8 3 -5 6 6 6 11 1 17 -2 13 -5z m2123 -202 c52 -75 96 -142 98 -148 4 -17
-60 -27 -69 -12 -29 50 -34 53 -80 39 -68 -20 -74 -25 -79 -72 -5 -39 -8 -44
-37 -50 -38 -7 -37 -11 -23 99 5 41 10 116 11 167 1 84 3 94 23 103 48 24 58
16 156 -126z m-2160 60 c-17 -20 -68 -74 -113 -119 l-82 -83 55 -55 c30 -30
49 -55 42 -55 -13 0 -112 97 -112 110 0 5 24 33 53 63 28 30 81 86 117 126 65
72 99 83 40 13z m1247 34 c9 -12 53 -349 48 -355 -2 -2 -20 0 -39 3 -33 6 -35
9 -38 49 -3 42 -4 42 -53 54 -76 17 -81 16 -104 -22 -20 -35 -36 -38 -69 -12
-10 8 -9 14 7 31 10 12 54 75 97 141 42 66 81 123 86 126 13 9 57 -1 65 -15z
m1962 -74 c-13 -5 -39 17 -39 32 0 6 -9 18 -20 26 -11 8 -20 21 -20 30 1 8 20
-6 45 -35 24 -27 40 -52 34 -53z m-1398 29 c35 -35 36 -45 6 -58 -19 -9 -28
-6 -50 13 -82 71 -171 -29 -137 -151 16 -58 41 -80 92 -80 32 0 45 6 62 28 25
32 66 37 66 8 0 -55 -84 -99 -166 -86 -83 12 -126 71 -127 170 -1 50 5 71 26
107 32 55 74 77 145 78 46 0 58 -4 83 -29z m1458 -76 c34 -39 41 -55 14 -34
-32 25 -43 37 -43 47 0 6 -6 13 -12 15 -9 4 -9 6 -2 6 7 1 26 -15 43 -34z
m-2919 -121 c0 -7 -77 -152 -90 -169 -7 -9 -38 -66 -97 -173 -28 -51 -29 -69
-5 -76 9 -3 44 -26 77 -51 33 -25 66 -45 73 -45 7 0 10 -4 7 -10 -3 -5 1 -10
10 -10 9 0 13 -4 10 -10 -10 -17 -40 -11 -55 10 -8 11 -21 20 -30 20 -14 0
-76 37 -107 64 -7 6 -19 16 -26 23 -15 12 -12 63 4 63 5 0 9 4 9 9 0 8 33 68
90 166 10 17 39 67 64 113 40 70 66 100 66 76z m2949 -78 c-12 -14 -29 -26
-36 -26 -7 0 1 13 19 29 39 35 48 33 17 -3z m-2338 -319 c63 -42 74 -111 29
-184 -32 -53 -124 -57 -174 -6 -52 52 -25 167 47 198 44 20 59 18 98 -8z
m1344 -70 c12 -48 25 -91 28 -94 4 -3 27 0 52 7 48 13 61 10 52 -14 -5 -13
-97 -46 -131 -46 -9 0 -18 12 -22 28 -19 83 -36 146 -46 168 -10 20 -9 27 3
35 29 19 41 3 64 -84z m-1037 -1 c4 -17 -1 -18 -46 -12 -45 6 -51 4 -57 -14
-9 -28 10 -48 48 -52 21 -2 33 -9 35 -20 3 -15 -4 -18 -46 -18 l-50 0 -7 -46
c-6 -42 -8 -45 -33 -42 -18 2 -26 8 -23 18 2 8 10 60 19 115 8 55 19 103 24
106 5 3 37 0 71 -6 47 -8 63 -15 65 -29z m847 -29 c53 -97 74 -144 67 -151
-13 -14 -40 -4 -50 19 -11 23 -16 25 -54 19 -45 -7 -68 -26 -68 -56 0 -11 -7
-18 -20 -18 -25 0 -25 3 6 137 26 109 31 118 69 122 6 0 28 -32 50 -72z m-267
31 c5 -7 11 -62 13 -123 4 -106 3 -110 -18 -113 -23 -3 -21 -10 -37 180 -4 53
0 64 25 67 4 1 11 -5 17 -11z m-442 -50 c-3 -29 -6 -84 -6 -121 l0 -68 -27 3
c-21 2 -28 8 -26 23 1 11 5 64 8 118 7 96 7 97 32 97 25 0 26 -1 19 -52z m282
36 c30 -20 28 -44 -2 -44 -14 0 -28 5 -31 10 -10 17 -61 11 -79 -9 -25 -27
-25 -105 -1 -131 22 -24 62 -26 94 -4 26 18 48 6 38 -20 -14 -35 -97 -47 -146
-21 -30 15 -61 69 -61 104 0 94 117 165 188 115z"/>
<path d="M2567 4511 c-24 -67 -23 -71 23 -71 22 0 40 4 40 8 0 20 -31 112 -38
112 -4 0 -15 -22 -25 -49z"/>
<path d="M2946 4538 c-2 -7 -9 -28 -15 -47 -14 -44 -1 -61 50 -61 41 0 59 18
59 59 0 32 -86 77 -94 49z"/>
<path d="M3396 4250 c-31 -49 -56 -98 -56 -108 0 -18 56 -52 86 -52 53 0 114
82 114 152 0 30 -7 42 -37 67 -21 17 -41 31 -45 31 -4 0 -32 -40 -62 -90z"/>
<path d="M2075 4017 c-16 -7 -32 -14 -35 -18 -3 -3 -12 -9 -20 -12 -8 -4 5 -4
30 -1 25 3 50 11 55 18 6 7 17 15 25 19 11 4 9 5 -5 5 -11 0 -33 -5 -50 -11z"/>
<path d="M3732 4043 c-18 -8 -46 -34 -62 -56 -40 -55 -40 -98 0 -139 27 -26
36 -30 68 -25 41 7 116 78 124 119 8 41 -11 87 -42 103 -36 19 -47 19 -88 -2z"/>
<path d="M2781 3636 c-14 -8 -31 -12 -38 -9 -7 3 -25 -9 -40 -27 -14 -18 -32
-38 -39 -45 -7 -7 -25 -30 -39 -51 -25 -37 -29 -39 -86 -41 -32 -1 -62 3 -65
8 -3 6 -12 1 -21 -10 -14 -21 -40 -30 -28 -11 16 27 -19 82 -85 135 -82 65
-112 73 -78 20 13 -19 28 -35 33 -35 18 -1 62 -44 90 -88 l28 -43 -37 -30
c-49 -41 -66 -78 -66 -141 1 -57 14 -83 45 -89 17 -4 16 -7 -13 -28 l-33 -23
-32 22 c-18 13 -53 48 -79 78 -44 51 -57 77 -72 144 -7 32 -63 75 -78 60 -7
-7 -3 -14 12 -22 12 -7 19 -18 16 -26 -3 -8 -1 -14 3 -14 5 0 19 -29 31 -64
14 -42 43 -93 89 -153 l68 -90 -15 -36 c-16 -42 -21 -43 -64 -21 -17 9 -51 22
-77 29 -25 7 -91 30 -146 50 -222 82 -345 109 -436 94 -100 -16 -159 -57 -159
-111 0 -15 10 -53 21 -85 30 -77 97 -144 170 -167 30 -10 60 -19 68 -22 11 -3
10 -9 -4 -30 -47 -72 -35 -130 36 -176 56 -36 128 -52 210 -45 99 8 148 38
292 176 42 41 77 70 77 65 0 -6 -8 -19 -18 -30 -9 -10 -35 -41 -57 -68 -22
-27 -74 -84 -115 -125 -59 -60 -80 -89 -98 -138 -13 -33 -29 -64 -37 -67 -21
-8 -19 -36 3 -36 24 1 63 36 99 90 17 25 68 79 113 120 46 41 100 96 120 122
33 41 40 45 51 32 10 -12 8 -20 -13 -42 -32 -35 -79 -105 -108 -162 -25 -49
-30 -67 -61 -205 -11 -52 -31 -109 -47 -135 -15 -25 -43 -80 -61 -123 -22 -51
-47 -89 -72 -112 -40 -36 -48 -58 -27 -71 25 -16 167 171 199 261 19 54 55
194 61 235 2 14 9 -24 16 -85 24 -205 90 -369 205 -505 35 -41 72 -90 82 -108
11 -17 25 -32 32 -32 7 0 24 18 38 40 13 21 33 44 44 49 17 10 121 141 121
154 0 3 13 27 30 54 28 45 63 137 89 230 l11 42 58 -57 c40 -41 70 -83 101
-147 49 -101 88 -158 102 -150 14 9 11 41 -5 54 -17 14 -59 91 -53 97 2 2 10
-7 17 -20 16 -32 40 -42 40 -17 0 9 -18 65 -40 124 -22 58 -40 115 -40 126 0
22 -16 104 -32 166 -9 36 -120 206 -139 213 -5 2 -9 10 -9 19 0 12 3 11 17 -3
10 -10 52 -42 93 -73 41 -30 107 -87 145 -127 39 -40 80 -75 91 -79 26 -7 56
19 48 40 -7 17 -30 20 -39 4 -10 -16 -40 15 -98 101 -28 41 -81 104 -118 140
-98 96 -192 201 -185 207 3 4 41 -27 85 -68 150 -142 203 -171 311 -171 161 0
270 98 223 201 -10 20 -18 39 -20 42 -2 4 15 9 38 13 87 14 135 57 190 170 46
94 48 118 12 145 -58 47 -228 69 -314 43 -148 -45 -406 -128 -459 -148 -36
-13 -69 -24 -73 -24 -4 0 -7 21 -7 46 0 39 6 53 36 86 20 22 42 55 50 73 7 18
19 39 26 47 22 23 38 57 38 78 0 10 14 35 30 53 31 36 37 52 21 61 -14 9 -78
-58 -95 -99 -9 -20 -36 -65 -61 -99 -24 -33 -50 -69 -57 -79 -13 -18 -14 -18
-50 0 -38 18 -51 43 -23 43 8 0 19 9 25 19 26 50 -3 138 -61 184 l-32 25 19
38 c11 22 32 45 47 52 15 8 38 29 50 47 12 19 32 40 45 46 12 7 22 18 22 26 0
16 1 16 -29 -1z m-231 -246 c0 -5 -4 -10 -10 -10 -5 0 -10 5 -10 10 0 6 5 10
10 10 6 0 10 -4 10 -10z m-140 -24 c0 -24 -19 -66 -30 -66 -14 0 -13 53 2 68
16 16 28 15 28 -2z m244 -21 c3 -8 3 -22 0 -30 -6 -14 -8 -13 -20 2 -7 10 -14
24 -14 31 0 17 27 15 34 -3z m-204 -198 c0 -2 -20 -18 -44 -35 -54 -39 -87
-103 -96 -186 l-6 -61 -8 56 c-14 101 21 171 105 208 51 23 49 22 49 18z m205
-17 c3 -5 2 -10 -4 -10 -5 0 -13 5 -16 10 -3 6 -2 10 4 10 5 0 13 -4 16 -10z
m-935 -14 c105 -26 206 -60 335 -113 177 -73 192 -94 35 -49 -30 9 -77 16
-105 15 l-50 0 80 -30 c64 -23 90 -28 128 -23 73 9 57 -12 -20 -25 -191 -33
-361 -54 -458 -55 -57 -1 -79 4 -120 25 -59 30 -120 112 -131 173 -6 36 -3 43
25 68 30 27 36 28 129 28 53 -1 122 -7 152 -14z m1817 -2 c17 -3 43 -17 58
-30 l28 -24 -23 -52 c-38 -91 -65 -124 -124 -152 -59 -28 -142 -35 -192 -16
-15 6 -93 17 -173 25 -177 18 -291 36 -291 47 0 4 23 8 51 8 28 0 98 11 155
25 151 36 192 26 198 -50 1 -5 12 -12 25 -13 18 -3 22 0 18 11 -3 9 2 17 14
20 10 3 23 16 28 29 5 13 16 30 25 37 19 16 21 62 4 79 -18 18 -36 15 -71 -12
-18 -13 -45 -26 -62 -29 -16 -3 -61 -15 -100 -26 -38 -11 -97 -25 -130 -31
-33 -7 -68 -16 -77 -21 -23 -12 -38 -12 -38 0 0 30 344 154 475 172 68 9 166
10 202 3z m-237 -154 c0 -5 -11 -10 -25 -10 -14 0 -25 5 -25 10 0 6 11 10 25
10 14 0 25 -4 25 -10z m-356 -121 c270 -20 376 -40 416 -80 79 -79 -12 -175
-165 -173 -50 0 -75 7 -145 43 -88 44 -111 60 -145 101 l-20 24 30 -21 c47
-32 115 -64 115 -55 0 5 -19 22 -42 38 -24 16 -62 45 -86 66 -23 21 -53 43
-67 48 -14 5 -25 14 -25 20 0 6 5 8 12 4 6 -4 61 -11 122 -15z m-815 -3 c-17
-15 -142 -47 -226 -57 -94 -12 -116 -20 -95 -33 24 -14 294 33 354 63 63 31
53 7 -27 -65 -89 -80 -177 -141 -225 -154 -56 -16 -135 -12 -195 11 -91 34
-110 87 -52 153 31 37 34 38 147 52 63 9 140 19 170 23 59 9 156 13 149 7z
m655 -226 c50 -89 60 -115 51 -130 -6 -10 -105 175 -105 198 0 23 9 12 54 -68z
m-364 -20 c26 -13 61 -20 102 -21 47 -1 57 -3 38 -9 -14 -4 -38 -8 -55 -9 -32
-1 -135 38 -135 51 0 12 6 10 50 -12z m287 -59 c11 -17 8 -22 -23 -40 -19 -12
-48 -21 -65 -21 -29 0 -40 -14 -16 -23 9 -4 9 -7 -1 -18 -31 -33 -202 -20
-277 21 -34 19 -36 26 -14 58 16 23 18 23 101 11 85 -12 202 -1 238 21 24 15
44 12 57 -9z m140 -118 c-3 -10 -5 -4 -5 12 0 17 2 24 5 18 2 -7 2 -21 0 -30z
m40 -50 c39 -45 80 -147 97 -243 5 -29 4 -32 -6 -18 -7 9 -42 38 -77 63 l-64
47 7 51 c3 29 6 69 6 90 0 20 3 37 6 37 4 0 17 -12 31 -27z m-537 -91 c96 -29
349 -15 410 23 18 11 11 -51 -7 -67 -20 -17 -69 -40 -122 -57 -61 -20 -208
-13 -284 13 -80 27 -83 30 -93 80 -7 38 -6 39 17 32 13 -4 49 -15 79 -24z m32
-253 c10 -5 37 -9 60 -10 l43 -1 -45 -11 c-33 -8 -39 -12 -22 -15 12 -2 20 -8
17 -13 -10 -15 81 -10 94 5 9 11 9 15 -1 19 -28 9 1 17 76 18 42 1 79 -1 83
-4 10 -11 -61 -46 -115 -58 -29 -6 -72 -8 -95 -4 -43 7 -137 52 -137 65 0 4
-9 10 -20 13 -11 3 -20 10 -20 15 0 10 44 0 82 -19z m129 -232 c52 -2 63 -11
27 -21 -42 -11 -91 -6 -110 11 -26 23 -22 34 8 23 14 -6 48 -11 75 -13z"/>
<path d="M1687 3073 c-22 -21 9 -103 33 -88 6 4 18 1 26 -6 19 -16 48 -20 97
-13 40 6 41 24 1 24 -28 0 -33 16 -6 23 9 3 2 5 -16 6 -39 1 -87 24 -95 46 -7
15 -28 20 -40 8z"/>
<path d="M1710 2961 c0 -5 8 -19 18 -31 15 -18 24 -21 51 -15 37 8 37 30 0 31
-14 1 -35 6 -47 13 -12 6 -22 8 -22 2z"/>
<path d="M2985 2800 c3 -5 14 -10 24 -10 10 0 50 -11 89 -25 39 -14 82 -25 94
-25 19 0 20 2 8 14 -33 31 -232 74 -215 46z"/>
<path d="M2635 2210 c3 -5 11 -10 16 -10 6 0 7 5 4 10 -3 6 -11 10 -16 10 -6
0 -7 -4 -4 -10z"/>
<path d="M2144 2490 c-11 -4 -41 -30 -65 -58 -43 -47 -46 -56 -71 -173 -14
-68 -34 -151 -43 -184 -9 -33 -17 -67 -17 -75 -1 -8 -5 -20 -10 -27 -5 -7 -7
-17 -3 -23 7 -11 55 36 55 53 0 4 9 27 20 49 11 23 20 49 20 57 0 29 39 141
91 263 28 66 49 121 47 123 -2 1 -12 -1 -24 -5z"/>
<path d="M962 3467 c-15 -17 -43 -127 -36 -138 9 -15 31 -10 39 8 8 23 19 143
13 143 -3 0 -10 -6 -16 -13z"/>
<path d="M794 3346 c-9 -22 22 -66 46 -66 29 0 44 34 22 53 -28 24 -61 31 -68
13z"/>
<path d="M902 3288 c-15 -15 -16 -45 -1 -53 18 -12 59 4 59 23 0 20 -18 42
-35 42 -6 0 -16 -5 -23 -12z"/>
<path d="M891 3172 c-6 -11 -11 -37 -11 -57 0 -29 3 -36 18 -33 26 5 41 74 20
94 -15 15 -17 15 -27 -4z"/>
<path d="M4054 3285 c-9 -22 4 -65 19 -65 24 0 56 38 50 60 -6 24 -60 29 -69
5z"/>
<path d="M4097 3213 c-20 -19 12 -141 34 -127 10 6 11 95 1 122 -4 13 -24 16
-35 5z"/>
<path d="M4147 2693 c-26 -8 -45 -18 -42 -24 5 -7 44 -28 108 -57 4 -2 7 19 7
47 0 57 0 57 -73 34z"/>
<path d="M857 2724 c-4 -4 -7 -28 -7 -54 0 -35 5 -52 21 -66 19 -17 23 -17 47
-3 24 13 27 21 27 69 l0 55 -40 3 c-23 2 -44 0 -48 -4z"/>
<path d="M864 2255 c10 -38 25 -75 31 -75 4 0 26 17 51 37 40 34 43 39 27 50
-9 7 -39 13 -66 13 -47 0 -49 -1 -43 -25z"/>
<path d="M3095 1540 c-3 -5 -1 -10 4 -10 6 0 11 5 11 10 0 6 -2 10 -4 10 -3 0
-8 -4 -11 -10z"/>
<path d="M561 2074 c0 -11 3 -14 6 -6 3 7 2 16 -1 19 -3 4 -6 -2 -5 -13z"/>
<path d="M1515 1859 c-4 -6 -5 -12 -2 -15 2 -3 7 2 10 11 7 17 1 20 -8 4z"/>
<path d="M1650 1731 c0 -6 4 -13 10 -16 6 -3 7 1 4 9 -7 18 -14 21 -14 7z"/>
<path d="M3774 1788 c-50 -57 -50 -56 -13 -88 42 -36 52 -37 78 -4 53 67 -10
155 -65 92z"/>
<path d="M725 1680 c3 -5 8 -10 11 -10 2 0 4 5 4 10 0 6 -5 10 -11 10 -5 0 -7
-4 -4 -10z"/>
<path d="M1275 1641 c-73 -45 -105 -113 -78 -164 22 -43 41 -56 82 -57 46 0
98 41 122 96 24 53 17 85 -23 119 -35 30 -63 31 -103 6z"/>
<path d="M3540 1469 c0 -24 35 -109 45 -109 14 1 55 36 55 49 0 9 -82 71 -94
71 -3 0 -6 -5 -6 -11z"/>
<path d="M2048 1483 c7 -3 16 -2 19 1 4 3 -2 6 -13 5 -11 0 -14 -3 -6 -6z"/>
<path d="M1701 1223 c-28 -54 -49 -103 -47 -109 7 -20 74 -45 101 -38 56 14
106 107 91 169 -5 21 -68 75 -88 75 -4 0 -30 -44 -57 -97z"/>
<path d="M3827 1134 c-16 -14 -26 -29 -22 -32 3 -3 20 8 38 26 38 38 24 43
-16 6z"/>
<path d="M2970 1158 c-8 -41 -9 -107 -3 -111 14 -9 64 5 69 18 5 13 -45 94
-58 95 -5 0 -8 -1 -8 -2z"/>
<path d="M2092 1105 c-17 -27 -32 -55 -32 -62 0 -12 66 -30 76 -21 3 3 1 34
-4 69 l-8 64 -32 -50z"/>
<path d="M1808 544 c-30 -15 -53 -72 -43 -104 9 -29 50 -53 78 -46 28 7 61 71
55 107 -2 13 -16 30 -33 40 -27 16 -33 16 -57 3z"/>
<path d="M2976 458 c-14 -52 -2 -71 32 -50 9 6 10 16 1 40 -13 38 -24 41 -33
10z"/>
<path d="M3230 4770 c20 -13 33 -13 25 0 -3 6 -14 10 -23 10 -15 0 -15 -2 -2
-10z"/>
<path d="M3520 4630 c0 -5 5 -10 11 -10 5 0 7 5 4 10 -3 6 -8 10 -11 10 -2 0
-4 -4 -4 -10z"/>
<path d="M3580 4590 c19 -17 43 -30 54 -30 13 0 6 9 -25 30 -56 38 -74 38 -29
0z"/>
<path d="M1923 153 c9 -2 23 -2 30 0 6 3 -1 5 -18 5 -16 0 -22 -2 -12 -5z"/>
<path d="M2980 149 c-25 -5 -62 -11 -82 -15 -21 -3 -38 -10 -38 -15 0 -19 129
-3 225 29 29 10 28 10 -15 10 -25 0 -65 -4 -90 -9z"/>
<path d="M1980 142 c0 -11 63 -22 165 -28 39 -3 88 -10 110 -16 49 -13 487
-13 530 1 21 6 -40 10 -205 10 -144 1 -285 8 -365 17 -198 24 -235 27 -235 16z"/>
</g>
</svg>
